<mxfile host="Electron" agent="Mozilla/5.0 (X11; Linux x86_64) AppleWebKit/537.36 (KHTML, like Gecko) draw.io/24.7.8 Chrome/128.0.6613.36 Electron/32.0.1 Safari/537.36" version="24.7.8">
  <diagram id="C5RBs43oDa-KdzZeNtuy" name="Page-1">
    <mxGraphModel dx="1484" dy="900" grid="1" gridSize="10" guides="1" tooltips="1" connect="1" arrows="1" fold="1" page="1" pageScale="1" pageWidth="827" pageHeight="1169" math="0" shadow="0">
      <root>
        <mxCell id="WIyWlLk6GJQsqaUBKTNV-0" />
        <mxCell id="WIyWlLk6GJQsqaUBKTNV-1" parent="WIyWlLk6GJQsqaUBKTNV-0" />
        <mxCell id="SrEE-dE6r3HtPPm9E7V3-20" value="" style="edgeStyle=orthogonalEdgeStyle;rounded=0;orthogonalLoop=1;jettySize=auto;html=1;" edge="1" parent="WIyWlLk6GJQsqaUBKTNV-1" source="SrEE-dE6r3HtPPm9E7V3-0" target="SrEE-dE6r3HtPPm9E7V3-2">
          <mxGeometry relative="1" as="geometry" />
        </mxCell>
        <mxCell id="SrEE-dE6r3HtPPm9E7V3-0" value="Start" style="ellipse;whiteSpace=wrap;html=1;fontSize=16;" vertex="1" parent="WIyWlLk6GJQsqaUBKTNV-1">
          <mxGeometry x="187" y="72" width="100" height="60" as="geometry" />
        </mxCell>
        <mxCell id="SrEE-dE6r3HtPPm9E7V3-1" value="End" style="ellipse;whiteSpace=wrap;html=1;fontSize=16;" vertex="1" parent="WIyWlLk6GJQsqaUBKTNV-1">
          <mxGeometry x="507" y="1037" width="100" height="60" as="geometry" />
        </mxCell>
        <mxCell id="SrEE-dE6r3HtPPm9E7V3-21" value="" style="edgeStyle=orthogonalEdgeStyle;rounded=0;orthogonalLoop=1;jettySize=auto;html=1;" edge="1" parent="WIyWlLk6GJQsqaUBKTNV-1" source="SrEE-dE6r3HtPPm9E7V3-2" target="SrEE-dE6r3HtPPm9E7V3-3">
          <mxGeometry relative="1" as="geometry" />
        </mxCell>
        <mxCell id="SrEE-dE6r3HtPPm9E7V3-2" value="Read Age, Height, Ride" style="shape=parallelogram;perimeter=parallelogramPerimeter;whiteSpace=wrap;html=1;fixedSize=1;" vertex="1" parent="WIyWlLk6GJQsqaUBKTNV-1">
          <mxGeometry x="147" y="192" width="180" height="40" as="geometry" />
        </mxCell>
        <mxCell id="SrEE-dE6r3HtPPm9E7V3-22" value="" style="edgeStyle=orthogonalEdgeStyle;rounded=0;orthogonalLoop=1;jettySize=auto;html=1;" edge="1" parent="WIyWlLk6GJQsqaUBKTNV-1" source="SrEE-dE6r3HtPPm9E7V3-3" target="SrEE-dE6r3HtPPm9E7V3-4">
          <mxGeometry relative="1" as="geometry" />
        </mxCell>
        <mxCell id="SrEE-dE6r3HtPPm9E7V3-42" value="&lt;font style=&quot;font-size: 18px;&quot;&gt;No&lt;/font&gt;" style="edgeLabel;html=1;align=center;verticalAlign=middle;resizable=0;points=[];fontFamily=Helvetica;fontSize=11;fontColor=default;labelBackgroundColor=default;fillColor=none;gradientColor=none;" vertex="1" connectable="0" parent="SrEE-dE6r3HtPPm9E7V3-22">
          <mxGeometry x="-0.319" y="-1" relative="1" as="geometry">
            <mxPoint as="offset" />
          </mxGeometry>
        </mxCell>
        <mxCell id="SrEE-dE6r3HtPPm9E7V3-25" style="edgeStyle=orthogonalEdgeStyle;rounded=0;orthogonalLoop=1;jettySize=auto;html=1;entryX=0.5;entryY=0;entryDx=0;entryDy=0;" edge="1" parent="WIyWlLk6GJQsqaUBKTNV-1" source="SrEE-dE6r3HtPPm9E7V3-3" target="SrEE-dE6r3HtPPm9E7V3-13">
          <mxGeometry relative="1" as="geometry" />
        </mxCell>
        <mxCell id="SrEE-dE6r3HtPPm9E7V3-38" value="&lt;font style=&quot;font-size: 18px;&quot;&gt;Yes&lt;/font&gt;" style="edgeLabel;html=1;align=center;verticalAlign=middle;resizable=0;points=[];" vertex="1" connectable="0" parent="SrEE-dE6r3HtPPm9E7V3-25">
          <mxGeometry x="-0.836" y="-1" relative="1" as="geometry">
            <mxPoint x="9" y="-1" as="offset" />
          </mxGeometry>
        </mxCell>
        <mxCell id="SrEE-dE6r3HtPPm9E7V3-3" value="If Ride != &quot;Dragon Roller Coaster&quot; &lt;br&gt;&amp;amp;&amp;amp; Ride != &quot;Sky Swing&quot;&amp;nbsp;&lt;div&gt;&amp;amp;&amp;amp; Ride != Carousel&quot;)&lt;/div&gt;" style="rhombus;whiteSpace=wrap;html=1;" vertex="1" parent="WIyWlLk6GJQsqaUBKTNV-1">
          <mxGeometry x="97" y="262" width="280" height="120" as="geometry" />
        </mxCell>
        <mxCell id="SrEE-dE6r3HtPPm9E7V3-23" value="" style="edgeStyle=orthogonalEdgeStyle;rounded=0;orthogonalLoop=1;jettySize=auto;html=1;" edge="1" parent="WIyWlLk6GJQsqaUBKTNV-1" source="SrEE-dE6r3HtPPm9E7V3-4" target="SrEE-dE6r3HtPPm9E7V3-5">
          <mxGeometry relative="1" as="geometry" />
        </mxCell>
        <mxCell id="SrEE-dE6r3HtPPm9E7V3-43" value="&lt;font style=&quot;font-size: 18px;&quot;&gt;No&lt;/font&gt;" style="edgeLabel;html=1;align=center;verticalAlign=middle;resizable=0;points=[];fontFamily=Helvetica;fontSize=11;fontColor=default;labelBackgroundColor=default;fillColor=none;gradientColor=none;" vertex="1" connectable="0" parent="SrEE-dE6r3HtPPm9E7V3-23">
          <mxGeometry x="-0.3715" y="-1" relative="1" as="geometry">
            <mxPoint as="offset" />
          </mxGeometry>
        </mxCell>
        <mxCell id="SrEE-dE6r3HtPPm9E7V3-26" style="edgeStyle=orthogonalEdgeStyle;rounded=0;orthogonalLoop=1;jettySize=auto;html=1;" edge="1" parent="WIyWlLk6GJQsqaUBKTNV-1" source="SrEE-dE6r3HtPPm9E7V3-4" target="SrEE-dE6r3HtPPm9E7V3-13">
          <mxGeometry relative="1" as="geometry" />
        </mxCell>
        <mxCell id="SrEE-dE6r3HtPPm9E7V3-40" value="&lt;font style=&quot;font-size: 18px;&quot;&gt;Yes&lt;/font&gt;" style="edgeLabel;html=1;align=center;verticalAlign=middle;resizable=0;points=[];fontFamily=Helvetica;fontSize=11;fontColor=default;labelBackgroundColor=default;fillColor=none;gradientColor=none;" vertex="1" connectable="0" parent="SrEE-dE6r3HtPPm9E7V3-26">
          <mxGeometry x="-0.7043" y="1" relative="1" as="geometry">
            <mxPoint x="33" y="1" as="offset" />
          </mxGeometry>
        </mxCell>
        <mxCell id="SrEE-dE6r3HtPPm9E7V3-4" value="If Age &amp;lt; 0" style="rhombus;whiteSpace=wrap;html=1;" vertex="1" parent="WIyWlLk6GJQsqaUBKTNV-1">
          <mxGeometry x="187" y="422" width="100" height="60" as="geometry" />
        </mxCell>
        <mxCell id="SrEE-dE6r3HtPPm9E7V3-24" value="" style="edgeStyle=orthogonalEdgeStyle;rounded=0;orthogonalLoop=1;jettySize=auto;html=1;" edge="1" parent="WIyWlLk6GJQsqaUBKTNV-1" source="SrEE-dE6r3HtPPm9E7V3-5" target="SrEE-dE6r3HtPPm9E7V3-14">
          <mxGeometry relative="1" as="geometry" />
        </mxCell>
        <mxCell id="SrEE-dE6r3HtPPm9E7V3-44" value="&lt;font style=&quot;font-size: 18px;&quot;&gt;No&lt;/font&gt;" style="edgeLabel;html=1;align=center;verticalAlign=middle;resizable=0;points=[];fontFamily=Helvetica;fontSize=11;fontColor=default;labelBackgroundColor=default;fillColor=none;gradientColor=none;" vertex="1" connectable="0" parent="SrEE-dE6r3HtPPm9E7V3-24">
          <mxGeometry x="-0.2202" relative="1" as="geometry">
            <mxPoint as="offset" />
          </mxGeometry>
        </mxCell>
        <mxCell id="SrEE-dE6r3HtPPm9E7V3-27" style="edgeStyle=orthogonalEdgeStyle;rounded=0;orthogonalLoop=1;jettySize=auto;html=1;entryX=0.5;entryY=1;entryDx=0;entryDy=0;" edge="1" parent="WIyWlLk6GJQsqaUBKTNV-1" source="SrEE-dE6r3HtPPm9E7V3-5" target="SrEE-dE6r3HtPPm9E7V3-13">
          <mxGeometry relative="1" as="geometry" />
        </mxCell>
        <mxCell id="SrEE-dE6r3HtPPm9E7V3-41" value="&lt;font style=&quot;font-size: 18px;&quot;&gt;Yes&lt;/font&gt;" style="edgeLabel;html=1;align=center;verticalAlign=middle;resizable=0;points=[];fontFamily=Helvetica;fontSize=11;fontColor=default;labelBackgroundColor=default;fillColor=none;gradientColor=none;" vertex="1" connectable="0" parent="SrEE-dE6r3HtPPm9E7V3-27">
          <mxGeometry x="-0.6433" relative="1" as="geometry">
            <mxPoint as="offset" />
          </mxGeometry>
        </mxCell>
        <mxCell id="SrEE-dE6r3HtPPm9E7V3-5" value="If Height &amp;lt; 0" style="rhombus;whiteSpace=wrap;html=1;" vertex="1" parent="WIyWlLk6GJQsqaUBKTNV-1">
          <mxGeometry x="187" y="516.5" width="100" height="60" as="geometry" />
        </mxCell>
        <mxCell id="SrEE-dE6r3HtPPm9E7V3-35" style="edgeStyle=orthogonalEdgeStyle;rounded=0;orthogonalLoop=1;jettySize=auto;html=1;entryX=1;entryY=0.5;entryDx=0;entryDy=0;" edge="1" parent="WIyWlLk6GJQsqaUBKTNV-1">
          <mxGeometry relative="1" as="geometry">
            <mxPoint x="607" y="452" as="sourcePoint" />
            <mxPoint x="606.9999999999961" y="1067" as="targetPoint" />
            <Array as="points">
              <mxPoint x="751" y="452" />
              <mxPoint x="751" y="1067" />
            </Array>
          </mxGeometry>
        </mxCell>
        <mxCell id="SrEE-dE6r3HtPPm9E7V3-13" value="Print &quot;Invalid input&quot;" style="shape=parallelogram;perimeter=parallelogramPerimeter;whiteSpace=wrap;html=1;fixedSize=1;" vertex="1" parent="WIyWlLk6GJQsqaUBKTNV-1">
          <mxGeometry x="437" y="432" width="180" height="40" as="geometry" />
        </mxCell>
        <mxCell id="SrEE-dE6r3HtPPm9E7V3-28" style="edgeStyle=orthogonalEdgeStyle;rounded=0;orthogonalLoop=1;jettySize=auto;html=1;" edge="1" parent="WIyWlLk6GJQsqaUBKTNV-1" source="SrEE-dE6r3HtPPm9E7V3-14" target="SrEE-dE6r3HtPPm9E7V3-18">
          <mxGeometry relative="1" as="geometry" />
        </mxCell>
        <mxCell id="SrEE-dE6r3HtPPm9E7V3-45" value="&lt;font style=&quot;font-size: 18px;&quot;&gt;Yes&lt;/font&gt;" style="edgeLabel;html=1;align=center;verticalAlign=middle;resizable=0;points=[];fontFamily=Helvetica;fontSize=11;fontColor=default;labelBackgroundColor=default;fillColor=none;gradientColor=none;" vertex="1" connectable="0" parent="SrEE-dE6r3HtPPm9E7V3-28">
          <mxGeometry x="-0.8533" y="2" relative="1" as="geometry">
            <mxPoint as="offset" />
          </mxGeometry>
        </mxCell>
        <mxCell id="SrEE-dE6r3HtPPm9E7V3-31" value="" style="edgeStyle=orthogonalEdgeStyle;rounded=0;orthogonalLoop=1;jettySize=auto;html=1;" edge="1" parent="WIyWlLk6GJQsqaUBKTNV-1" source="SrEE-dE6r3HtPPm9E7V3-14" target="SrEE-dE6r3HtPPm9E7V3-15">
          <mxGeometry relative="1" as="geometry" />
        </mxCell>
        <mxCell id="SrEE-dE6r3HtPPm9E7V3-48" value="&lt;font style=&quot;font-size: 18px;&quot;&gt;No&lt;/font&gt;" style="edgeLabel;html=1;align=center;verticalAlign=middle;resizable=0;points=[];fontFamily=Helvetica;fontSize=11;fontColor=default;labelBackgroundColor=default;fillColor=none;gradientColor=none;" vertex="1" connectable="0" parent="SrEE-dE6r3HtPPm9E7V3-31">
          <mxGeometry x="-0.2845" y="1" relative="1" as="geometry">
            <mxPoint as="offset" />
          </mxGeometry>
        </mxCell>
        <mxCell id="SrEE-dE6r3HtPPm9E7V3-14" value="If Ride == &quot;Dragon Roller Coaster&quot;&amp;nbsp;&lt;div&gt;&amp;amp;&amp;amp; Height &amp;gt;= 48&amp;nbsp;&lt;div&gt;&amp;amp;&amp;amp; Age &amp;gt;= 10&lt;br&gt;&lt;/div&gt;&lt;/div&gt;" style="rhombus;whiteSpace=wrap;html=1;" vertex="1" parent="WIyWlLk6GJQsqaUBKTNV-1">
          <mxGeometry x="97" y="622" width="280" height="120" as="geometry" />
        </mxCell>
        <mxCell id="SrEE-dE6r3HtPPm9E7V3-29" value="" style="edgeStyle=orthogonalEdgeStyle;rounded=0;orthogonalLoop=1;jettySize=auto;html=1;" edge="1" parent="WIyWlLk6GJQsqaUBKTNV-1" source="SrEE-dE6r3HtPPm9E7V3-15" target="SrEE-dE6r3HtPPm9E7V3-18">
          <mxGeometry relative="1" as="geometry" />
        </mxCell>
        <mxCell id="SrEE-dE6r3HtPPm9E7V3-46" value="&lt;font style=&quot;font-size: 18px;&quot;&gt;Yes&lt;/font&gt;" style="edgeLabel;html=1;align=center;verticalAlign=middle;resizable=0;points=[];fontFamily=Helvetica;fontSize=11;fontColor=default;labelBackgroundColor=default;fillColor=none;gradientColor=none;" vertex="1" connectable="0" parent="SrEE-dE6r3HtPPm9E7V3-29">
          <mxGeometry x="-0.1503" y="1" relative="1" as="geometry">
            <mxPoint as="offset" />
          </mxGeometry>
        </mxCell>
        <mxCell id="SrEE-dE6r3HtPPm9E7V3-30" value="" style="edgeStyle=orthogonalEdgeStyle;rounded=0;orthogonalLoop=1;jettySize=auto;html=1;" edge="1" parent="WIyWlLk6GJQsqaUBKTNV-1" source="SrEE-dE6r3HtPPm9E7V3-15" target="SrEE-dE6r3HtPPm9E7V3-17">
          <mxGeometry relative="1" as="geometry" />
        </mxCell>
        <mxCell id="SrEE-dE6r3HtPPm9E7V3-49" value="&lt;font style=&quot;font-size: 18px;&quot;&gt;No&lt;/font&gt;" style="edgeLabel;html=1;align=center;verticalAlign=middle;resizable=0;points=[];fontFamily=Helvetica;fontSize=11;fontColor=default;labelBackgroundColor=default;fillColor=none;gradientColor=none;" vertex="1" connectable="0" parent="SrEE-dE6r3HtPPm9E7V3-30">
          <mxGeometry x="-0.1121" y="-1" relative="1" as="geometry">
            <mxPoint as="offset" />
          </mxGeometry>
        </mxCell>
        <mxCell id="SrEE-dE6r3HtPPm9E7V3-15" value="If Ride == &quot;Sky Swing&quot; &amp;amp;&amp;amp; Height &amp;gt;= 4" style="rhombus;whiteSpace=wrap;html=1;" vertex="1" parent="WIyWlLk6GJQsqaUBKTNV-1">
          <mxGeometry x="97" y="782" width="280" height="80" as="geometry" />
        </mxCell>
        <mxCell id="SrEE-dE6r3HtPPm9E7V3-32" style="edgeStyle=orthogonalEdgeStyle;rounded=0;orthogonalLoop=1;jettySize=auto;html=1;entryX=0.5;entryY=1;entryDx=0;entryDy=0;" edge="1" parent="WIyWlLk6GJQsqaUBKTNV-1" source="SrEE-dE6r3HtPPm9E7V3-17" target="SrEE-dE6r3HtPPm9E7V3-18">
          <mxGeometry relative="1" as="geometry" />
        </mxCell>
        <mxCell id="SrEE-dE6r3HtPPm9E7V3-47" value="&lt;font style=&quot;font-size: 18px;&quot;&gt;Yes&lt;/font&gt;" style="edgeLabel;html=1;align=center;verticalAlign=middle;resizable=0;points=[];fontFamily=Helvetica;fontSize=11;fontColor=default;labelBackgroundColor=default;fillColor=none;gradientColor=none;" vertex="1" connectable="0" parent="SrEE-dE6r3HtPPm9E7V3-32">
          <mxGeometry x="-0.8623" relative="1" as="geometry">
            <mxPoint as="offset" />
          </mxGeometry>
        </mxCell>
        <mxCell id="SrEE-dE6r3HtPPm9E7V3-33" value="" style="edgeStyle=orthogonalEdgeStyle;rounded=0;orthogonalLoop=1;jettySize=auto;html=1;" edge="1" parent="WIyWlLk6GJQsqaUBKTNV-1" source="SrEE-dE6r3HtPPm9E7V3-17" target="SrEE-dE6r3HtPPm9E7V3-19">
          <mxGeometry relative="1" as="geometry" />
        </mxCell>
        <mxCell id="SrEE-dE6r3HtPPm9E7V3-50" value="&lt;font style=&quot;font-size: 18px;&quot;&gt;No&lt;/font&gt;" style="edgeLabel;html=1;align=center;verticalAlign=middle;resizable=0;points=[];fontFamily=Helvetica;fontSize=11;fontColor=default;labelBackgroundColor=default;fillColor=none;gradientColor=none;" vertex="1" connectable="0" parent="SrEE-dE6r3HtPPm9E7V3-33">
          <mxGeometry x="-0.4353" y="-2" relative="1" as="geometry">
            <mxPoint y="4" as="offset" />
          </mxGeometry>
        </mxCell>
        <mxCell id="SrEE-dE6r3HtPPm9E7V3-17" value="If Ride == &quot;Carousel&quot;&amp;nbsp; &amp;amp;&amp;amp; Age &amp;gt;= 5" style="rhombus;whiteSpace=wrap;html=1;" vertex="1" parent="WIyWlLk6GJQsqaUBKTNV-1">
          <mxGeometry x="97" y="902" width="280" height="80" as="geometry" />
        </mxCell>
        <mxCell id="SrEE-dE6r3HtPPm9E7V3-52" style="edgeStyle=orthogonalEdgeStyle;rounded=0;orthogonalLoop=1;jettySize=auto;html=1;fontFamily=Helvetica;fontSize=11;fontColor=default;labelBackgroundColor=default;resizable=0;" edge="1" parent="WIyWlLk6GJQsqaUBKTNV-1" source="SrEE-dE6r3HtPPm9E7V3-18">
          <mxGeometry relative="1" as="geometry">
            <mxPoint x="751" y="822" as="targetPoint" />
          </mxGeometry>
        </mxCell>
        <mxCell id="SrEE-dE6r3HtPPm9E7V3-18" value="Print &quot;You meet the criteria for The &quot;, Ride" style="shape=parallelogram;perimeter=parallelogramPerimeter;whiteSpace=wrap;html=1;fixedSize=1;" vertex="1" parent="WIyWlLk6GJQsqaUBKTNV-1">
          <mxGeometry x="443" y="802" width="280" height="40" as="geometry" />
        </mxCell>
        <mxCell id="SrEE-dE6r3HtPPm9E7V3-34" value="" style="edgeStyle=orthogonalEdgeStyle;rounded=0;orthogonalLoop=1;jettySize=auto;html=1;" edge="1" parent="WIyWlLk6GJQsqaUBKTNV-1" source="SrEE-dE6r3HtPPm9E7V3-19" target="SrEE-dE6r3HtPPm9E7V3-1">
          <mxGeometry relative="1" as="geometry" />
        </mxCell>
        <mxCell id="SrEE-dE6r3HtPPm9E7V3-19" value="Print &quot;You DO NOT meet the criteria for The &quot;, Ride" style="shape=parallelogram;perimeter=parallelogramPerimeter;whiteSpace=wrap;html=1;fixedSize=1;" vertex="1" parent="WIyWlLk6GJQsqaUBKTNV-1">
          <mxGeometry x="77" y="1047" width="320" height="40" as="geometry" />
        </mxCell>
      </root>
    </mxGraphModel>
  </diagram>
</mxfile>
